<?xml version="1.0" encoding="UTF-8"?>
<svg version="1.1" viewBox="0 0 1228 984" width="128" height="128" xmlns="http://www.w3.org/2000/svg">
<path transform="translate(0)" d="m0 0h1228v984h-1228z" fill="none"/>
<path transform="translate(915,77)" d="m0 0h49l12 3 26 3 11 3 24 7 17 6 18 8 21 10 19 12 12 7 20 15-1 3-7 2-9 3-8 3-19 6-20 7-27 11-18 8-25 13-24 15-21 14-16 9-14 6-18 6-5 2v1l31-2-1 4-9 11-8 10-13 18-16 23-16 24-13 18-12 17-13 16-12 14-14 15-8 8-14 10-16 9-6 1v2l16-3 17-4-1 5-10 16-14 19-10 13-11 13-9 11-9 10-7 8-22 22-11 9-13 10-24 15-17 8-2 3 8-1 3-1-2 5-11 7-15 10-18 11-10 6-11 6-26 13-17 8-7 3-11 4-4 1 2-9 13-29 6-12 8-5 18-10 16-10 6-4 16-11 11-8 16-12 13-10 15-13 11-10 8-7 16-16 7-8 12-14 10-12 10-13 14-19 14-20 26-39 14-22 52-78 20-26 9-11 12-14 15-16 12-11 11-9 11-10 18-13 17-11 17-10 16-8 31-14-1-4-16-6-19-5-18-3-26-2-3-2h-36l-5 2-30 2-29 4-32 7-20 5-25 8-16 6-18 7-17 7-50 25-14 8-20 12-17 11-15 10-13 10-20 15-10 9-11 9-10 9-28 28-8 10-13 15-10 13-16 24-12 19-14 27-9 20-12 36-6 24-3 19-2 17-1 5v38l2 10 3 31 7 30 5 21 1 7 1 18v14h2l2-10 8-24 13-31 12-26 16-33 20-39 12-22 16-29 10-17 17-29 14-23 15-23 10-14 12-16 10-12 10-13 12-14 24-26 10-10 8-7 8-8 8-7 16-13 12-10 15-11 11-8 15-10 22-13 22-12 7-4 13-5 14-6 24-8 32-9h5l-4 3-16 8-9 4-14 7-18 10-19 13-14 10-12 9-15 12-11 9-15 14-8 7-12 11-16 17-12 13-11 12-9 11-12 14-13 16-13 17-14 19-14 20-22 33-16 25-13 21-17 28-13 23-12 23-10 18-12 23-16 35-10 24-9 26-12 36-9 28-6 19-8 26-13 50v2h2l6-10 9-12 13-16 1-1h11l12 3 15 2 18 6 10 4 14 7 9 9 6 12-1 9-4 8-10 9-12 7-15 6-6 2-28 7-31 3h-45l-28-3-23-5-14-4-14-5-14-9-8-7-4-6-1-3v-12l4-8 8-9 11-7 15-7 13-4 23-5 34-3h10l-1-10-5-25-10-49-10-42-10-39-4-15-6-29-2-18v-51l4 2 8 14 5 8 2 1-9-26-2-12-1-21 1-22 3-23 5-16 7-20 9-21 8-16 13-24 19-28 7-10h1l-1 21-4 33h2l4-17 11-33 12-25 8-14 8-12 12-14 11-12 18-18 11-9 18-14 11-8 14-10 19-13 17-11 16-10 1 2-8 13-9 13-10 18-1 2 4-4 10-13 11-12 7-8 15-14 15-11 15-10 17-10 29-14 27-10 31-10 32-8 10-2 5-2 16-2-2 5-7 8-8 9-3 6 7-4 12-9 16-9 10-5z" fill="#5C3107"/>
<path transform="translate(928,118)" d="m0 0h36l3 2 26 2 22 4 24 7 8 4 1 4-16 8-23 10-9 5-14 8-20 13-19 14-11 10-11 9-16 15-12 13-12 14-13 17-10 13-10 14-11 17-32 48-12 19-24 36-13 19-13 18-9 12-14 18-13 15-10 11-7 8-17 17-8 7-14 12-12 10-16 12-15 11-19 13-9 6-22 13-12 7-5 3-11 24-8 19-1 5 3 1-8 3-19 10-6-2-5-1 3-12 9-22 15-33 12-25 13-24 12-22 11-20 17-28 14-23 16-25 10-15 21-31 13-18 9-12 10-13 12-15 9-11 8-9 9-11 12-13 15-16 12-13 7-7 8-7 12-11 14-12 16-13 19-14 20-14 16-10 19-10 9-5 7-3 17-8-10 2-31 9-20 7-12 5-13 5-7 4-19 10-22 13-15 10-22 16-13 10-14 12-10 8-31 29-8 8-7 8-13 14-8 10-13 16-7 9-10 13-12 17-13 20-14 23-13 22-15 26-12 21-15 28-24 46-19 39-13 30-11 28-7 23h-2l-2-32-3-16-8-32-3-17-2-24-2-10v-38l2-10 3-26 6-25 6-20 9-25 16-33 8-14 16-25 10-14 10-13 13-15 11-13 32-32 11-9 14-12 32-24 15-10 22-14 17-10 22-12 34-17 11-5 16-7 16-6 20-7 27-8 25-6 31-6 28-3 19-1z" fill="#FBBB7F"/>
<path transform="translate(948,153)" d="m0 0h10v3l-6 2h-2v2l-6 3-11 2-1 1h-8l-2 2v3l-14 11-2-1 2-3h2v-2l-9 5-5 2v-3l20-10-10 2-31 9-20 7-12 5-13 5-7 4-19 10-22 13-15 10-22 16-13 10-14 12-10 8-31 29-8 8-7 8-13 14-8 10-13 16-7 9-10 13-12 17-13 20-14 23-13 22-15 26-12 21-15 28-24 46-19 39-13 30-11 28-7 23h-2l-2-32-3-16-8-32-3-17-2-24-2-10v-38l2-10 3-26 6-25 6-20 9-25 16-33 8-14 16-25 10-14 10-13 13-15 11-13 32-32 11-9 14-12 32-24 15-10 22-14 17-10 22-12 20-10 6-1-2 7-4 5-1 5 10-1 2 1v13l1 3 12-1 21-9 35-14 25-8 25-7 31-7 19-3 14-3z" fill="#FBBB7E"/>
<path transform="translate(651,269)" d="m0 0 4 2 2 4 4 2 19 2 7 2 1 1 1 17-10 9-10 10-7 8-13 14-8 10-13 16-7 9-10 13-12 17-13 20-14 23-13 22-15 26-12 21-15 28-24 46-19 39-13 30-11 28-7 23h-2l-2-32-2-14 3 1 3-15 4-27 7-37 7-28 18-57 18-40 12-24 14-24 9-15 13-19 13-18 9-11 22-26 11-12 12-13 11-10 14-11 9-7z" fill="#FB9A3D"/>
<path transform="translate(928,118)" d="m0 0h36l3 2 26 2 22 4 24 7 8 4 1 4-16 8-23 10-9 5-14 8-20 13-19 14-11 10-11 9-16 15-5 6-1-2-8 7-9 10-9 11-13 16-10 15-10 14-3 3h-14l-2-1-1-21-3-12-1-5v-17l6-9 3-4h2l2-4h2l2-4 21-21h2l1-3 19-14 9-5 11-7 12-8 10-8-1-3 3-2h8l1-1 14-3 3-1v-2l8-3v-1h-10l-38 3-52 10-31 8-36 12-24 10-10 4-17 7h-12l-2-3 1-13h-12v-5l5-6 1-5-4-1 27-12 13-6 16-6 20-7 27-8 25-6 31-6 28-3 19-1z" fill="#FB9A3D"/>
<path transform="translate(711,343)" d="m0 0h34l-1 6-6 11-8 11-13 19-10 14-8 11-11 15-12 16-13 17-13 16-11 14-12 14-9 10-7 8-11 12-12 13-8 8-8 5-15 13-13 13-8 5-1-2 26-48 16-27 14-23 14-22 9-14 10-15 19-28 13-18 9-12 10-13 12-15 7-8 7-1 6-4z" fill="#FB9A3D"/>
<path transform="translate(441,461)" d="m0 0h3l1 2v25l2 10 3 3 7 5 10-1 9-1-1 9-2 11-12 38-6 25-7 37-6 38-2 5-1-2h-2l-4-14-5-20-4-42-1-6v-42l5-38 5-20 6-19z" fill="#FDD6B3"/>
<path transform="translate(576,559)" d="m0 0 5 1-3 9-5 12-1 4v19l10-1 5-1h8l-2 5-9 6-22 13-12 7-5 3-11 24-8 19-1 5 3 1-8 3-19 10-6-2-5-1 3-12 9-22 15-33 12-25 5-9 10-6 17-17 11-9z" fill="#FDD5B1"/>
<path transform="translate(1043,138)" d="m0 0h5l-1 4-35 16-16 8-21 13-13 9-16 12-10 9-11 9-5 5-3-1 9-10 8-7 14-11 8-7 16-11 11-7 10-6 12-7 19-9 9-4h4v-2z" fill="#FCBE85"/>
<path transform="translate(901,237)" d="m0 0h2l-1 4-12 13-22 28-9 12-28 42h-3l6-11 9-15 8-11 10-15 11-14 11-13 9-10 7-8z" fill="#FDCB9D"/>
<path transform="translate(345,907)" d="m0 0 9 2 26 6 21 3 12 1h45l14-1 22-3 23-6 8-2-4 4-14 3-13 4-34 4h-49l-26-3-29-7-11-4z" fill="#FCB573"/>
<path transform="translate(945,155)" d="m0 0h8l-3 5-3 2-13 1-3 1-5-2-1-2-10-1v2l-9 1h-11l3-2 8-2z" fill="#FDD5B1"/>
<path transform="translate(1043,138)" d="m0 0h5l-1 4-35 16-8 4h-5l1-3 21-11 12-5h4v-2z" fill="#FCC38D"/>
<path transform="translate(434,638)" d="m0 0h8l1 1-1 15-2 9-2 1-1-5h-2l-2-14v-6z" fill="#FDFAF8"/>
<path transform="translate(424,813)" d="m0 0h1l1 8-1 2-44 4-23 5-3-1 9-3 23-5 16-2h21z" fill="#FCB777"/>
<path transform="translate(908,176)" d="m0 0h2v2h-2l-2 5-11 7-7 3-6 3h-5l5-5 13-7 11-7z" fill="#FDD2AB"/>
<path transform="translate(948,153)" d="m0 0h10v3l-6 2-2-1 1-1-22 1-23 2-11 2 1-2 14-3z" fill="#FCBC80"/>
<path transform="translate(944,197)" d="m0 0 3 1-5 5-14 13-8 7-3-1 9-10 8-7z" fill="#FCC28D"/>
<path transform="translate(970,177)" d="m0 0h3l-1 4-17 12-7 5h-2l2-4 8-7z" fill="#FCC592"/>
<path transform="translate(523,907)" d="m0 0 2 1-4 3-14 3-13 4-16 2h-20v-1l14-1 22-3 23-6z" fill="#FCB36F"/>
<path transform="translate(901,237)" d="m0 0h2l-1 4-12 13-8 10-3-1 2-4 11-12 7-8z" fill="#FCC592"/>
<path transform="translate(588,608)" d="m0 0 3 1-16 9-13 8-12 7-4 1 1-3 24-13 13-8z" fill="#FBB16C"/>
<path transform="translate(878,263)" d="m0 0h3l-2 5-11 14-4 5h-2l2-5 4-5 3-6z" fill="#FDD2AC"/>
<path transform="translate(892,181)" d="m0 0 4 1-9 6-18 9h-5l4-3 16-9z" fill="#FB9A3D"/>
<path transform="translate(929,252)" d="m0 0 2 1-9 3v2l21-1v1l-17 2-14 1v-3l9-3z" fill="#FCBB7E"/>
<path transform="translate(868,275)" d="m0 0v3l-5 7-1 5-9 12-2-1 2-5 8-12z" fill="#FDD6B2"/>
<path transform="translate(803,450)" d="m0 0h3l-1 3-1-1-19 5-13 1v-2l10-4h3l-2 2 7-1z" fill="#FCB36E"/>
<path transform="translate(948,153)" d="m0 0h10v3l-6 2-2-1 1-1h-18l2-2z" fill="#FCC088"/>
<path transform="translate(916,157)" d="m0 0m-10 1h10l-1 3-9 1h-11l3-2z" fill="#FED7B5"/>
<path transform="translate(1043,138)" d="m0 0h5l-1 4-12 5 2-6z" fill="#FCC593"/>
<path transform="translate(945,155)" d="m0 0 4 2-3 3-7 1-4-4 1-1z" fill="#FEFEFE"/>
<path transform="translate(442,695)" d="m0 0 3 3v7l-2 6h-2v-14z" fill="#FBB777"/>
<path transform="translate(443,643)" d="m0 0h1v8l-3 15-2 1v-2h-2l-1-6 3 4z" fill="#FCC796"/>
<path transform="translate(862,197)" d="m0 0 2 1-5 5-10 5-6 4-2-1z" fill="#FB9A3D"/>
<path transform="translate(1037,142)" d="m0 0m-4 1h4l-2 4-6 3h-5l5-5z" fill="#FDD2AA"/>
<path transform="translate(653,606)" d="m0 0 2 1-3 1v2l4 1-6 3-5-1 2-4z" fill="#FCC28B"/>
<path transform="translate(872,272)" d="m0 0 1 4-9 11h-2l2-5 4-5 1-3z" fill="#FDE3CC"/>
<path transform="translate(623,200)" d="m0 0h5l-6 9-3 4h-2l2-6z" fill="#FCC48F"/>
<path transform="translate(984,168)" d="m0 0 2 1-4 3 1 2-10 6-1-4 11-7z" fill="#FCBD82"/>
<path transform="translate(562,623)" d="m0 0 4 1-16 9-4 1 1-3z" fill="#FBB069"/>
<path transform="translate(926,212)" d="m0 0 2 1v3l-8 7-3-1z" fill="#FCBD82"/>
<path transform="translate(380,917)" d="m0 0h13l8 1-3 2-13-1-5-1z" fill="#FCB878"/>
<path transform="translate(851,299)" d="m0 0 2 4-5 7-5 1 7-11z" fill="#FDC99A"/>
<path transform="translate(917,256)" d="m0 0 4 1-1 2 2 1-10 1v-3z" fill="#FCBD81"/>
<path transform="translate(970,177)" d="m0 0h3l-1 4-7 5h-2l2-4z" fill="#FCC695"/>
<path transform="translate(908,174)" d="m0 0 2 1-10 7-4 1v-3z" fill="#FBB069"/>
<path transform="translate(542,589)" d="m0 0 2 1-11 10-3 3 2-5 2-4z" fill="#FCBB7F"/>
<path transform="translate(836,324)" d="m0 0 1 3-7 10-2-1 5-9z" fill="#FDCB9D"/>
<path transform="translate(887,254)" d="m0 0 1 3-6 7-3-1 2-4z" fill="#FDCB9E"/>
<path transform="translate(901,237)" d="m0 0h2l-1 4-7 6v-4z" fill="#FCC797"/>
<path transform="translate(964,181)" d="m0 0 2 1-5 7-5 2v-4z" fill="#FCC38E"/>
<path transform="translate(989,165)" d="m0 0 3 1-1 3-6 4-4-1 5-5z" fill="#FDCA9C"/>
<path transform="translate(868,275)" d="m0 0v3l-5 7-1 5h-3v-3z" fill="#FDCA9C"/>
<path transform="translate(1e3 157)" d="m0 0h5v3l-4 2h-5l1-3z" fill="#FDD4AF"/>
<path transform="translate(846,309)" d="m0 0 1 3-4 5-3-1 2-5z" fill="#FDDBBC"/>
<path transform="translate(896,181)" d="m0 0m-2 1h2l-1 3-11 6-2-1 8-5z" fill="#FCBC80"/>
</svg>
