<?xml version="1.0" encoding="UTF-8"?>
<svg version="1.1" viewBox="0 0 2048 381" width="128" height="128" xmlns="http://www.w3.org/2000/svg">
<path transform="translate(0)" d="m0 0h2048v381h-2048z" fill="none"/>
<path transform="translate(1557,96)" d="m0 0h30l18 4 16 6 13 8 10 8 9 10 9 15 7 16 5 21v40l-5 23-8 18-7 11-11 13-14 10-19 9-19 5h-33l-22-5-16-8-14-9-10-10-7-10-9-17-5-16-4-20v-26l3-17 5-17 8-16 6-9 9-11 13-10 14-8 17-6z" fill="#613409"/>
<path transform="translate(1693,99)" d="m0 0h38l4 9 10 36 17 59 13 45 2 6 3-14 6-24 15-58 10-39 5-19 1-1h35l7 24 14 55 8 31 4 17 3 9 4 20h2l1-8 6-24 11-37 7-25 12-43 6-18 1-1h32l-1 8-8 30-22 77-9 31-10 35-8 25-4 6-35-1-5-15-15-58-6-24-9-34-2-12-1-1-7 24-10 39-7 27-5 19-8 29-3 6-3 1-33-1-3-5-12-42-12-41-16-56-11-39-14-1 1-26z" fill="#613409"/>
<path transform="translate(97,99)" d="m0 0h39l3 8 16 57 13 44 7 24 5 22 1 1 6-25 14-54 15-60 5-17h36l11 42 11 44 5 19 7 27 6 21 7-23 12-42 7-24 14-50 4-13 1-1h32l-1 11-16 57-30 104-9 31-5 8-1 1-34-1-3-7-8-29-13-51-10-38-4-16v-3h-2l-2 11-13 49-9 35-10 39-3 9-2 1h-35l-3-3-12-42-18-62-18-63-4-13-14-1 1-23z" fill="#613409"/>
<path transform="translate(413,99)" d="m0 0h91l20 4 10 5 9 7 7 8 7 14 4 15 1 16-5 21-7 14-12 12-10 5h-2l5 13 16 33 11 23 6 14 1 7h-32l-4-4-12-23-16-32-11-23-1-2-8-1h-24l-1 23-1 46-1 15-1 1h-17l-14-1-1-126-1-56-9-1v-11l1-15z" fill="#613409"/>
<path transform="translate(1561,126)" d="m0 0h23l15 4 13 7 10 9 9 12 5 11 4 14 1 6v30l-3 17-7 16-9 12-9 8-12 7-16 5-6 1h-9l-13-2-13-5-9-5-12-10-9-14-5-11-4-14-2-11v-18l3-14 4-12 7-14 9-11 11-9 16-7z" fill="none"/>
<path transform="translate(878,99)" d="m0 0h132l1 5-1 21-1 1-89 1v27l1 35 6 1 51 1 17 1v19l-2 6-73 1v40l1 24 93 2v12l-1 12-7 2-118-1-1-38-1-117-1-26-9-2v-15l1-11z" fill="#613409"/>
<path transform="translate(1134,99)" d="m0 0h135l1 1v14l-1 11-1 1h-92l1 67h20l54 1v19l-1 7-5 1-47 1-21 1-1 86-1 1h-19l-13-1v-182l-10-1-1-1 1-25z" fill="#613409"/>
<path transform="translate(695,99)" d="m0 0h138v21l-1 6h-52l-1 184h-22l-10-1-1-62-1-118-1-1-37-1-14-1v-16l1-10z" fill="#613409"/>
<path transform="translate(1314,99)" d="m0 0h41l1 9 1 165 1 9 26 1 60 1 1 4-2 20-1 1h-117l-1-2-1-20-1-160-9-1v-26z" fill="#613409"/>
<path transform="translate(609,99)" d="m0 0h42v210l-1 1h-21l-9-1-1-26-1-152-1-4-9-1v-17z" fill="#613409"/>
<path transform="translate(455,126)" d="m0 0h47l10 4 9 8 6 12 1 7-1 16-3 8-7 9-9 6-4 2h-49l-1-3v-68z" fill="none"/>
</svg>
